HIERARCHY
ROOT Hips
{
	OFFSET 0.000000 0.000000 0.000000
	CHANNELS 6 Xposition Yposition Zposition Xrotation Yrotation Zrotation
	JOINT LeftUpLeg_virtual
	{
		OFFSET 0.000000 0.000000 0.000000
		CHANNELS 3 Xrotation Yrotation Zrotation
		JOINT LeftUpLeg
		{
			OFFSET 11.394100 -6.187798 -0.413800
			CHANNELS 3 Xrotation Yrotation Zrotation
			JOINT LeftLeg
			{
				OFFSET 0.430247 -32.302673 3.732800
				CHANNELS 3 Xrotation Yrotation Zrotation
				JOINT LeftFoot
				{
					OFFSET -0.430247 -48.264931 -6.423300
					CHANNELS 3 Xrotation Yrotation Zrotation
					JOINT LeftToeBase
					{
						OFFSET 4.230900 -16.068199 23.438400
						CHANNELS 3 Xrotation Yrotation Zrotation
						JOINT LeftToe_End
						{
							OFFSET 4.510700 0.695400 19.974600
							CHANNELS 3 Xrotation Yrotation Zrotation
							End Site
							{
								OFFSET 0 0 0
							}
						}
					}
				}
			}
		}
	}
	JOINT RightUpLeg_virtual
	{
		OFFSET 0.000000 0.000000 0.000000
		CHANNELS 3 Xrotation Yrotation Zrotation
		JOINT RightUpLeg
		{
			OFFSET -11.333700 -6.187798 -0.413800
			CHANNELS 3 Xrotation Yrotation Zrotation
			JOINT RightLeg
			{
				OFFSET -0.430392 -32.302628 3.733000
				CHANNELS 3 Xrotation Yrotation Zrotation
				JOINT RightFoot
				{
					OFFSET 0.430392 -48.264973 -6.423500
					CHANNELS 3 Xrotation Yrotation Zrotation
					JOINT RightToeBase
					{
						OFFSET -4.230900 -16.068199 23.438400
						CHANNELS 3 Xrotation Yrotation Zrotation
						JOINT RightToe_End
						{
							OFFSET -4.510700 0.695400 19.974600
							CHANNELS 3 Xrotation Yrotation Zrotation
							End Site
							{
								OFFSET 0 0 0
							}
						}
					}
				}
			}
		}
	}
	JOINT Spine_virtual
	{
		OFFSET 0.000000 0.000000 0.000000
		CHANNELS 3 Xrotation Yrotation Zrotation
		JOINT Spine
		{
			OFFSET -0.002400 12.777504 0.315300
			CHANNELS 3 Xrotation Yrotation Zrotation
			JOINT Spine1
			{
				OFFSET -0.002067 5.816869 0.032633
				CHANNELS 3 Xrotation Yrotation Zrotation
				JOINT Spine1_split
				{
					OFFSET -0.002067 5.816869 0.032633
					CHANNELS 3 Xrotation Yrotation Zrotation
					JOINT Spine2
					{
						OFFSET -0.002067 5.816869 0.032633
						CHANNELS 3 Xrotation Yrotation Zrotation
						JOINT Neck_virtual
						{
							OFFSET 0.000000 0.000000 0.000000
							CHANNELS 3 Xrotation Yrotation Zrotation
							JOINT Neck
							{
								OFFSET -0.003700 21.199493 -0.826900
								CHANNELS 3 Xrotation Yrotation Zrotation
								JOINT Head
								{
									OFFSET 0.000000 20.442200 4.834800
									CHANNELS 3 Xrotation Yrotation Zrotation
									JOINT HeadTop_End
									{
										OFFSET 0.000000 34.668396 4.968400
										CHANNELS 3 Xrotation Yrotation Zrotation
										End Site
										{
											OFFSET 0 0 0
										}
									}
								}
							}
						}
						JOINT LeftShoulder_virtual
						{
							OFFSET 0.000000 0.000000 0.000000
							CHANNELS 3 Xrotation Yrotation Zrotation
							JOINT LeftShoulder
							{
								OFFSET 3.288150 8.794197 -1.372250
								CHANNELS 3 Xrotation Yrotation Zrotation
								JOINT LeftShoulder_split
								{
									OFFSET 3.288150 8.794197 -1.372250
									CHANNELS 3 Xrotation Yrotation Zrotation
									JOINT LeftArm
									{
										OFFSET 11.953299 -2.279007 -0.146200
										CHANNELS 3 Xrotation Yrotation Zrotation
										JOINT LeftForeArm
										{
											OFFSET 18.448900 0.000000 0.000000
											CHANNELS 3 Xrotation Yrotation Zrotation
											JOINT LeftHand
											{
												OFFSET 29.527798 0.000000 0.000000
												CHANNELS 3 Xrotation Yrotation Zrotation
												End Site
												{
													OFFSET 0 0 0
												}
											}
										}
									}
								}
							}
						}
						JOINT RightShoulder_virtual
						{
							OFFSET 0.000000 0.000000 0.000000
							CHANNELS 3 Xrotation Yrotation Zrotation
							JOINT RightShoulder
							{
								OFFSET -3.249400 8.794197 -1.372250
								CHANNELS 3 Xrotation Yrotation Zrotation
								JOINT RightShoulder_split
								{
									OFFSET -3.249400 8.794197 -1.372250
									CHANNELS 3 Xrotation Yrotation Zrotation
									JOINT RightArm
									{
										OFFSET -11.953299 -2.279007 -0.146200
										CHANNELS 3 Xrotation Yrotation Zrotation
										JOINT RightForeArm
										{
											OFFSET -18.448900 0.000000 0.000000
											CHANNELS 3 Xrotation Yrotation Zrotation
											JOINT RightHand
											{
												OFFSET -29.527802 0.000000 0.000000
												CHANNELS 3 Xrotation Yrotation Zrotation
												End Site
												{
													OFFSET 0 0 0
												}
											}
										}
									}
								}
							}
						}
					}
				}
			}
		}
	}
}
MOTION
Frames: 9
Frame Time: 0.03333333
3.054255 85.470070 17.164566 0.000000 0.000000 0.000000 -0.974722 -35.823816 -2.313066 -47.997020 -1.242827 20.750198 63.852775 3.058020 -0.615540 -14.525675 -9.953142 -10.365666 -4.442734 -0.592561 2.494208 0.000000 0.000000 0.000000 -1.537389 -30.506664 -2.083849 -14.535534 -14.058105 -26.491457 53.539152 -8.305629 -11.044379 -17.417034 -10.418022 25.832675 -12.965439 0.796713 1.254931 0.000000 0.000000 0.000000 -0.736825 -29.116915 -2.092402 12.434373 9.160122 -5.012339 2.002416 2.008144 -2.031495 0.936225 -0.531717 0.938433 0.000000 0.000000 0.000000 3.821924 1.360919 -1.405600 -11.119688 9.945513 6.277987 0.716774 9.046847 -1.094526 0.000000 0.000000 0.000000 2.818686 1.865724 -1.627983 0.715231 -0.128379 -5.552312 -1.897862 -3.192933 -0.204832 -59.109926 2.341019 -46.104405 -179.128691 -73.278456 -178.333657 0.000000 0.000000 0.000000 3.011146 1.377099 -1.815562 3.530831 22.152018 -4.744688 -8.215505 -3.750596 2.396084 -42.186278 17.657890 48.847088 -178.437162 62.026819 177.567515 0.000000 0.000000 0.000000 
3.051812 84.938118 14.936043 0.000000 0.000000 0.000000 -2.290829 -39.421735 -2.575954 -47.536539 -0.859372 22.577117 64.598051 3.271062 -1.007670 -13.107586 -8.845477 -10.765908 -4.985229 -0.713384 3.137344 0.000000 0.000000 0.000000 -2.928830 -33.886969 -2.272118 -16.217678 -13.664691 -27.592308 55.693236 -9.332701 -10.087701 -19.759828 -11.627084 25.499033 -9.756890 0.752825 0.843321 0.000000 0.000000 0.000000 -2.262009 -32.609642 -2.245632 12.764694 8.834967 -4.124352 2.113677 1.900234 -1.877871 0.861297 -0.362196 1.061215 0.000000 0.000000 0.000000 3.820297 1.312810 -1.284488 -10.673385 10.663579 5.825159 1.625645 11.673283 -2.122552 0.000000 0.000000 0.000000 2.991967 1.771213 -1.465232 0.808214 -0.035837 -5.363552 -1.523321 -3.191449 -0.255661 -60.090017 3.273833 -46.237946 -179.328256 -73.341656 -178.786048 0.000000 0.000000 0.000000 3.058168 1.261201 -1.674910 3.601387 21.803518 -5.169177 -7.617962 -3.063398 2.502997 -44.631673 17.925546 52.627157 -177.608961 62.667204 176.707321 0.000000 0.000000 0.000000 
2.909591 84.479881 12.614521 0.000000 0.000000 0.000000 -3.387427 -42.027291 -2.757894 -47.268782 -0.818205 24.058243 64.862755 3.248245 -1.250980 -11.210209 -8.054786 -11.247442 -5.257013 -0.714449 3.430665 0.000000 0.000000 0.000000 -4.217152 -36.610794 -2.362177 -17.961499 -12.864888 -28.638647 57.368917 -9.740316 -9.241505 -21.053134 -11.958400 25.946272 -7.854110 0.779496 0.643830 0.000000 0.000000 0.000000 -3.477794 -35.438723 -2.283735 12.952026 8.534617 -3.204659 2.210100 1.774851 -1.683159 0.852862 -0.253732 1.089334 0.000000 0.000000 0.000000 3.772041 1.255557 -1.129917 -10.059179 11.220429 5.189764 2.507519 13.660015 -3.035563 0.000000 0.000000 0.000000 3.181970 1.649121 -1.283075 0.918162 0.088706 -5.510701 -1.309613 -3.029905 -0.388354 -60.512143 3.993595 -46.435301 -179.581465 -74.005066 -179.223112 0.000000 0.000000 0.000000 3.181672 1.150949 -1.486688 3.624932 21.146730 -5.516091 -6.917195 -2.431692 2.543318 -47.090862 17.896873 56.490732 -177.278967 62.782764 176.303124 0.000000 0.000000 0.000000 
2.626448 84.173126 10.222752 0.000000 0.000000 0.000000 -4.193834 -43.705301 -2.798866 -47.119979 -1.109554 25.117922 64.417290 3.162999 -1.329971 -8.844138 -7.541267 -11.587737 -5.073326 -0.566481 3.097783 0.000000 0.000000 0.000000 -5.349905 -38.597351 -2.376482 -19.510709 -11.905050 -29.438272 58.072577 -9.575000 -8.641146 -21.339946 -11.494361 27.085224 -7.101579 0.874984 0.592835 0.000000 0.000000 0.000000 -4.335934 -37.537600 -2.193089 12.957560 8.228059 -2.298417 2.281777 1.620623 -1.455294 0.867607 -0.172699 1.058707 0.000000 0.000000 0.000000 3.698838 1.182343 -0.939277 -9.207388 11.651266 4.401607 3.334964 15.139767 -3.893567 0.000000 0.000000 0.000000 3.369769 1.499573 -1.083634 1.045010 0.217867 -5.969014 -1.271141 -2.759906 -0.527613 -60.352603 4.487794 -46.680901 -179.854221 -74.983265 -179.578214 0.000000 0.000000 0.000000 3.368533 1.051915 -1.250702 3.629732 20.313199 -5.753142 -6.269676 -2.073391 2.423200 -49.395283 17.761132 60.113041 -177.407074 63.068894 176.327235 0.000000 0.000000 0.000000 
2.315850 84.097198 7.883236 0.000000 0.000000 0.000000 -4.741682 -44.651610 -2.675168 -46.983768 -1.572250 25.707194 63.308156 3.139004 -1.262794 -6.125727 -7.260419 -11.592843 -4.401493 -0.285557 1.978131 0.000000 0.000000 0.000000 -6.332860 -39.916350 -2.329072 -20.562179 -11.226358 -29.844594 57.745691 -9.249638 -8.224367 -21.215664 -10.670389 27.808053 -6.330888 1.014285 0.708269 0.000000 0.000000 0.000000 -4.824757 -39.043035 -1.941803 12.833888 7.926231 -1.464721 2.334595 1.457330 -1.220272 0.844453 -0.107817 0.968347 0.000000 0.000000 0.000000 3.622545 1.084670 -0.728185 -8.151827 12.004180 3.523641 4.098107 16.225461 -4.744030 0.000000 0.000000 0.000000 3.533751 1.337348 -0.880795 1.178667 0.359308 -6.620943 -1.349736 -2.594004 -0.596435 -59.594206 4.760793 -46.969667 179.846845 -75.845767 -179.864959 0.000000 0.000000 0.000000 3.581106 0.963993 -1.002242 3.627107 19.434750 -5.901527 -5.631925 -1.916938 2.270529 -51.415192 17.850732 63.269962 -177.860284 63.855616 176.648377 0.000000 0.000000 0.000000 
1.974169 84.262070 5.615448 0.000000 0.000000 0.000000 -5.071348 -45.003375 -2.368170 -46.887801 -2.048165 25.795915 61.819496 3.164335 -1.024961 -3.371928 -7.257452 -11.311458 -3.495451 0.046451 0.254031 0.000000 0.000000 0.000000 -7.153341 -40.679504 -2.183722 -21.208190 -10.994538 -29.911273 56.750375 -9.121487 -7.838072 -21.154914 -9.861793 27.496064 -4.811899 1.189561 0.991409 0.000000 0.000000 0.000000 -5.066219 -40.098866 -1.542468 12.651733 7.661847 -0.767980 2.360771 1.298590 -1.012843 0.728628 -0.064704 0.840093 0.000000 0.000000 0.000000 3.558822 0.984098 -0.536920 -6.938868 12.300011 2.660817 4.809727 17.016964 -5.591966 0.000000 0.000000 0.000000 3.657104 1.187056 -0.705831 1.310130 0.505818 -7.310984 -1.355791 -2.486405 -0.608536 -58.420479 4.812900 -47.314015 179.609988 -76.312242 179.977206 0.000000 0.000000 0.000000 3.781772 0.895385 -0.784412 3.648836 18.642609 -6.013680 -5.173004 -1.979417 2.136435 -53.092266 18.334343 65.945873 -178.454429 65.054902 177.116190 0.000000 0.000000 0.000000 
1.601541 84.574974 3.509289 0.000000 0.000000 0.000000 -5.368212 -45.009021 -1.913147 -46.837216 -2.269598 25.415259 60.387567 3.122143 -0.603452 -0.966465 -7.628871 -10.872567 -2.637475 0.305502 -1.634002 0.000000 0.000000 0.000000 -7.794807 -41.018575 -1.885055 -21.663746 -11.126798 -29.815053 55.620433 -9.250865 -7.418168 -21.177389 -9.208350 26.324350 -3.377395 1.355781 1.306057 0.000000 0.000000 0.000000 -5.182008 -40.793038 -1.001371 12.484576 7.461441 -0.271185 2.376190 1.166929 -0.863480 0.570887 -0.021607 0.702020 0.000000 0.000000 0.000000 3.528141 0.892664 -0.398212 -5.669947 12.542488 1.891017 5.531120 17.611554 -6.409757 0.000000 0.000000 0.000000 3.740364 1.067279 -0.591663 1.437106 0.658698 -7.911630 -1.310028 -2.464681 -0.650278 -57.152281 4.693181 -47.711627 179.427758 -76.317283 179.886337 0.000000 0.000000 0.000000 3.930006 0.847642 -0.630459 3.693532 18.001682 -6.157851 -4.841746 -2.088863 2.054282 -54.422910 19.189375 68.275274 -178.920179 66.295667 177.491495 0.000000 0.000000 0.000000 
1.240029 84.984154 1.629414 0.000000 0.000000 0.000000 -5.667556 -44.920310 -1.332150 -46.821466 -2.103125 24.595829 59.255928 2.779083 0.005414 0.696584 -8.543502 -10.666537 -2.313856 0.425271 -3.083653 0.000000 0.000000 0.000000 -8.237619 -41.162210 -1.399959 -22.202964 -11.394204 -29.701894 54.783793 -9.525080 -7.025864 -20.928103 -8.722426 24.990844 -2.975430 1.465206 1.489921 0.000000 0.000000 0.000000 -5.252371 -41.377566 -0.344752 12.383887 7.345528 0.006465 2.391214 1.075059 -0.775306 0.397463 0.074085 0.571310 0.000000 0.000000 0.000000 3.498304 0.823221 -0.328276 -4.461559 12.738272 1.273611 6.244922 18.077199 -7.128078 0.000000 0.000000 0.000000 3.777103 0.979299 -0.545107 1.543091 0.826741 -8.322691 -1.175721 -2.449314 -0.732840 -55.998105 4.511255 -48.085444 179.301768 -76.055659 179.840561 0.000000 0.000000 0.000000 4.014862 0.821160 -0.550380 3.748316 17.536548 -6.355745 -4.536786 -2.147413 2.011856 -55.387476 20.199579 70.352178 -179.193004 67.256996 177.726167 0.000000 0.000000 0.000000 
0.876770 85.396309 -0.005054 0.000000 0.000000 0.000000 -5.987243 -44.839762 -0.679270 -46.843889 -1.468254 23.502794 58.586378 1.802730 0.835255 1.588011 -10.150358 -11.363566 -2.982681 0.432920 -3.485668 0.000000 0.000000 0.000000 -8.497269 -41.284648 -0.736829 -22.953679 -11.458126 -29.590084 54.241070 -9.739431 -6.754576 -20.474481 -8.358762 24.018212 -3.437681 1.500376 1.494691 0.000000 0.000000 0.000000 -5.379802 -41.911028 0.297018 12.358485 7.308658 0.081210 2.408387 1.014887 -0.732638 0.316056 0.068621 0.541456 0.000000 0.000000 0.000000 3.449006 0.775950 -0.313528 -3.385850 12.905487 0.843004 6.981246 18.435565 -7.689239 0.000000 0.000000 0.000000 3.780511 0.918101 -0.555003 1.618073 0.995027 -8.508817 -1.015809 -2.340126 -0.847910 -55.196685 4.398943 -48.378455 179.253520 -75.777117 179.848962 0.000000 0.000000 0.000000 4.044006 0.811043 -0.531852 3.797106 17.265714 -6.620078 -4.283571 -2.204303 2.032321 -56.020344 21.114367 72.163571 -179.231609 67.799620 177.762736 0.000000 0.000000 0.000000 
